# Blender v3.0.1 OBJ File: ''
# www.blender.org
mtllib spikes.mtl
o Cube_Cube.002
v -2.387263 0.751239 3.856503
v -2.597335 1.147655 3.732035
v -2.439066 0.740937 1.615353
v -2.418569 0.995421 1.541338
v -0.374247 0.752206 3.587608
v -0.480972 0.936701 3.583118
v -0.330094 0.774175 1.535066
v -0.262606 0.993142 1.572162
v -2.528952 1.133352 2.580536
v -1.360123 1.065420 1.488390
v -0.251701 1.045437 2.615886
v -1.340709 1.180954 3.763339
v -1.262483 1.160668 2.606179
v -2.473420 1.021829 2.117598
v -0.848281 1.022371 1.490635
v -0.214754 1.044117 3.124360
v -1.872195 1.144331 3.935799
v -2.604569 1.103212 3.109444
v -1.859492 1.039968 1.492395
v -0.234380 1.015948 2.145144
v -0.691818 1.117850 3.731391
v -1.176253 1.239724 2.884606
v -1.326428 1.203383 2.204469
v -0.977860 1.165189 2.636348
v -1.801152 1.315253 2.598037
v -1.811264 1.267017 2.124269
v -0.835022 1.221231 2.199487
v -0.895362 1.213405 2.961776
v -1.830354 1.369367 3.114690
v -2.177187 1.936882 3.381043
v -1.064959 1.713384 3.330189
v -1.131141 1.627994 2.486360
v -2.455193 1.685956 2.335016
v -1.565253 1.736973 2.408774
v -1.601737 1.738913 1.895902
v -2.102895 1.658222 1.571123
v -0.611474 1.726449 2.357985
v -0.588836 1.744032 1.886315
v -1.373153 1.806417 1.721163
v -0.581460 1.638788 3.388170
v -0.630028 1.618843 2.848961
v -1.051340 1.345004 2.662834
v -1.856161 1.928015 3.854867
v -1.552145 1.753464 2.807931
v -2.134576 1.798656 2.894257
vt 0.375000 0.000000
vt 0.625000 0.000000
vt 0.625000 0.062500
vt 0.625000 0.125000
vt 0.625000 0.187500
vt 0.625000 0.250000
vt 0.375000 0.250000
vt 0.625000 0.312500
vt 0.625000 0.375000
vt 0.625000 0.437500
vt 0.625000 0.500000
vt 0.375000 0.500000
vt 0.625000 0.562500
vt 0.625000 0.625000
vt 0.625000 0.687500
vt 0.625000 0.750000
vt 0.375000 0.750000
vt 0.625000 0.812500
vt 0.625000 0.875000
vt 0.625000 0.937500
vt 0.625000 1.000000
vt 0.375000 1.000000
vt 0.125000 0.500000
vt 0.125000 0.750000
vt 0.687500 0.687500
vt 0.750000 0.687500
vt 0.718750 0.718750
vt 0.687500 0.562500
vt 0.750000 0.562500
vt 0.718750 0.593750
vt 0.812500 0.562500
vt 0.875000 0.562500
vt 0.843750 0.593750
vt 0.781250 0.593750
vt 0.750000 0.500000
vt 0.812500 0.500000
vt 0.781250 0.531250
vt 0.875000 0.500000
vt 0.843750 0.531250
vt 0.656250 0.593750
vt 0.687500 0.500000
vt 0.656250 0.531250
vt 0.718750 0.531250
vt 0.656250 0.718750
vt 0.687500 0.625000
vt 0.656250 0.656250
vt 0.750000 0.625000
vt 0.718750 0.656250
vt 0.812500 0.687500
vt 0.781250 0.718750
vt 0.812500 0.625000
vt 0.781250 0.656250
vt 0.875000 0.625000
vt 0.843750 0.656250
vt 0.875000 0.687500
vt 0.843750 0.718750
vt 0.875000 0.750000
vt 0.812500 0.750000
vt 0.750000 0.750000
vt 0.687500 0.750000
vn -0.9427 -0.3332 -0.0162
vn -0.0096 -0.2395 -0.9709
vn 0.9456 -0.3203 0.0569
vn 0.0852 -0.1522 0.9847
vn 0.0081 -1.0000 -0.0027
vn 0.2603 0.6284 -0.7330
vn -0.0288 0.5620 -0.8266
vn -0.1060 0.3120 -0.9441
vn 0.2019 0.4277 -0.8811
vn -0.0328 0.5088 -0.8603
vn -0.0939 0.0893 -0.9916
vn 0.0139 0.2937 -0.9558
vn 0.1454 0.4350 -0.8886
vn 0.0294 0.3000 -0.9535
vn 0.3204 0.5422 -0.7768
vn 0.0399 0.3988 -0.9162
vn 0.1007 0.1851 -0.9775
vn -0.0542 0.7961 -0.6027
vn 0.1207 0.3722 -0.9203
vn -0.0966 0.4708 -0.8770
vn -0.1181 0.3618 -0.9247
vn -0.8866 0.4619 -0.0227
vn -0.2328 0.4960 0.8366
vn 0.8743 0.4549 0.1692
vn -0.9223 0.3567 -0.1488
vn 0.0973 0.5973 0.7961
vn 0.8836 0.4323 -0.1800
vn -0.9336 0.3089 0.1815
vn -0.1057 0.2747 0.9557
vn 0.8586 0.3916 0.3310
vn -0.9882 0.0716 -0.1358
vn -0.1258 0.4168 0.9003
vn 0.5201 0.8485 -0.0975
vn -0.8780 0.4777 -0.0299
vn 0.0908 0.3651 0.9266
vn 0.8943 0.4370 -0.0959
vn -0.9234 0.3783 -0.0655
vn -0.0849 0.4643 0.8816
vn 0.9093 0.3986 -0.1196
vn -0.8960 0.4315 -0.1051
vn -0.2705 0.7130 0.6469
vn 0.9014 0.3811 -0.2057
vn -0.8632 0.4523 -0.2242
vn 0.0908 0.3943 0.9145
vn 0.8837 0.4681 0.0032
vn -0.9207 0.3800 -0.0894
vn 0.2235 0.4213 0.8790
vn 0.9058 0.4192 -0.0613
vn -0.9980 -0.0344 0.0536
vn -0.0148 0.6246 0.7808
vn 0.7926 0.5831 -0.1784
vn -0.8849 0.3721 0.2802
vn 0.7021 0.2820 0.6538
vn 0.8066 0.2625 0.5296
vn -0.8145 0.5671 0.1225
vn -0.1354 0.3469 0.9281
vn 0.8222 0.5662 -0.0583
vn -0.6559 0.7547 -0.0112
vn -0.0289 0.9092 0.4153
vn 0.8734 0.3982 -0.2804
vn -0.9988 0.0156 -0.0466
vn 0.3016 0.0918 0.9490
vn 0.8189 0.5418 0.1895
vn -0.8428 0.5282 -0.1030
vn 0.3736 0.3984 0.8377
vn 0.7718 0.5075 -0.3831
vn -0.8378 0.5386 -0.0891
vn -0.1352 0.3751 0.9171
vn 0.8191 0.5734 -0.0138
usemtl None
s off
f 1/1/1 2/2/1 18/3/1 9/4/1 14/5/1 4/6/1 3/7/1
f 3/7/2 4/6/2 19/8/2 10/9/2 15/10/2 8/11/2 7/12/2
f 7/12/3 8/11/3 20/13/3 11/14/3 16/15/3 6/16/3 5/17/3
f 5/17/4 6/16/4 21/18/4 12/19/4 17/20/4 2/21/4 1/22/4
f 3/23/5 7/12/5 5/17/5 1/24/5
f 28/25/6 22/26/6 31/27/6
f 27/28/7 23/29/7 32/30/7
f 26/31/8 14/32/8 33/33/8
f 23/29/9 26/31/9 34/34/9
f 10/35/10 19/36/10 35/37/10
f 19/36/11 4/38/11 36/39/11
f 20/13/12 27/28/12 37/40/12
f 8/11/13 15/41/13 38/42/13
f 15/41/14 10/35/14 39/43/14
f 16/15/15 28/25/15 40/44/15
f 11/14/16 24/45/16 41/46/16
f 24/45/17 13/47/17 42/48/17
f 22/26/18 29/49/18 43/50/18
f 13/47/19 25/51/19 44/52/19
f 25/51/20 9/53/20 45/54/20
f 29/49/21 18/55/21 30/56/21
f 18/55/22 2/57/22 30/56/22
f 2/57/23 17/58/23 30/56/23
f 17/58/24 29/49/24 30/56/24
f 22/26/25 12/59/25 31/27/25
f 12/59/26 21/60/26 31/27/26
f 21/60/27 28/25/27 31/27/27
f 23/29/28 13/47/28 32/30/28
f 13/47/29 24/45/29 32/30/29
f 24/45/30 27/28/30 32/30/30
f 14/32/31 9/53/31 33/33/31
f 9/53/32 25/51/32 33/33/32
f 25/51/33 26/31/33 33/33/33
f 26/31/34 25/51/34 34/34/34
f 25/51/35 13/47/35 34/34/35
f 13/47/36 23/29/36 34/34/36
f 19/36/37 26/31/37 35/37/37
f 26/31/38 23/29/38 35/37/38
f 23/29/39 10/35/39 35/37/39
f 4/38/40 14/32/40 36/39/40
f 14/32/41 26/31/41 36/39/41
f 26/31/42 19/36/42 36/39/42
f 27/28/43 24/45/43 37/40/43
f 24/45/44 11/14/44 37/40/44
f 11/14/45 20/13/45 37/40/45
f 15/41/46 27/28/46 38/42/46
f 27/28/47 20/13/47 38/42/47
f 20/13/48 8/11/48 38/42/48
f 10/35/49 23/29/49 39/43/49
f 23/29/50 27/28/50 39/43/50
f 27/28/51 15/41/51 39/43/51
f 28/25/52 21/60/52 40/44/52
f 21/60/53 6/16/53 40/44/53
f 6/16/54 16/15/54 40/44/54
f 24/45/55 28/25/55 41/46/55
f 28/25/56 16/15/56 41/46/56
f 16/15/57 11/14/57 41/46/57
f 13/47/58 22/26/58 42/48/58
f 22/26/59 28/25/59 42/48/59
f 28/25/60 24/45/60 42/48/60
f 29/49/61 17/58/61 43/50/61
f 17/58/62 12/59/62 43/50/62
f 12/59/63 22/26/63 43/50/63
f 25/51/64 29/49/64 44/52/64
f 29/49/65 22/26/65 44/52/65
f 22/26/66 13/47/66 44/52/66
f 9/53/67 18/55/67 45/54/67
f 18/55/68 29/49/68 45/54/68
f 29/49/69 25/51/69 45/54/69
