# Blender v3.0.1 OBJ File: ''
# www.blender.org
mtllib untitled.mtl
o Cube_Cube.002
v -2.352524 0.800287 3.624465
v -2.352524 0.977594 3.624465
v -2.352524 0.800287 1.624465
v -2.352524 0.977594 1.624465
v -0.352524 0.800287 3.624465
v -0.352524 0.977594 3.624465
v -0.352524 0.800287 1.624465
v -0.352524 0.977594 1.624465
v -2.352524 0.977594 2.624465
v -1.352524 0.977594 1.624465
v -0.352524 0.977594 2.624465
v -1.352524 0.977594 3.624465
v -1.352524 0.977594 2.624465
v -2.352524 0.977594 2.124465
v -0.852524 0.977594 1.624465
v -0.352524 0.977594 3.124465
v -1.852524 0.977594 3.624465
v -2.352524 0.977594 3.124465
v -1.852524 0.977594 1.624465
v -0.352524 0.977594 2.124465
v -0.852524 0.977594 3.624465
v -1.352524 0.977594 3.124465
v -1.352524 0.977594 2.124465
v -0.852524 0.977594 2.624465
v -1.852524 0.977594 2.624465
v -1.852524 0.977594 2.124465
v -0.852524 0.977594 2.124465
v -0.852524 0.977594 3.124465
v -1.852524 0.977594 3.124465
v -2.102524 1.617544 3.374465
v -1.102524 1.617544 3.374465
v -1.102524 1.617544 2.374465
v -2.102524 1.617544 2.374465
v -1.602524 1.617544 2.374465
v -1.602524 1.617544 1.874465
v -2.102524 1.617544 1.874465
v -0.602524 1.617544 2.374465
v -0.602524 1.617544 1.874465
v -1.102524 1.617544 1.874465
v -0.602524 1.617544 3.374465
v -0.602524 1.617544 2.874465
v -1.102524 1.617544 2.874465
v -1.602524 1.617544 3.374465
v -1.602524 1.617544 2.874465
v -2.102524 1.617544 2.874465
vt 0.375000 0.000000
vt 0.625000 0.000000
vt 0.625000 0.062500
vt 0.625000 0.125000
vt 0.625000 0.187500
vt 0.625000 0.250000
vt 0.375000 0.250000
vt 0.625000 0.312500
vt 0.625000 0.375000
vt 0.625000 0.437500
vt 0.625000 0.500000
vt 0.375000 0.500000
vt 0.625000 0.562500
vt 0.625000 0.625000
vt 0.625000 0.687500
vt 0.625000 0.750000
vt 0.375000 0.750000
vt 0.625000 0.812500
vt 0.625000 0.875000
vt 0.625000 0.937500
vt 0.625000 1.000000
vt 0.375000 1.000000
vt 0.125000 0.500000
vt 0.125000 0.750000
vt 0.687500 0.687500
vt 0.750000 0.687500
vt 0.718750 0.718750
vt 0.687500 0.562500
vt 0.750000 0.562500
vt 0.718750 0.593750
vt 0.812500 0.562500
vt 0.875000 0.562500
vt 0.843750 0.593750
vt 0.781250 0.593750
vt 0.750000 0.500000
vt 0.812500 0.500000
vt 0.781250 0.531250
vt 0.875000 0.500000
vt 0.843750 0.531250
vt 0.656250 0.593750
vt 0.687500 0.500000
vt 0.656250 0.531250
vt 0.718750 0.531250
vt 0.656250 0.718750
vt 0.687500 0.625000
vt 0.656250 0.656250
vt 0.750000 0.625000
vt 0.718750 0.656250
vt 0.812500 0.687500
vt 0.781250 0.718750
vt 0.812500 0.625000
vt 0.781250 0.656250
vt 0.875000 0.625000
vt 0.843750 0.656250
vt 0.875000 0.687500
vt 0.843750 0.718750
vt 0.875000 0.750000
vt 0.812500 0.750000
vt 0.750000 0.750000
vt 0.687500 0.750000
vn -1.0000 0.0000 0.0000
vn 0.0000 0.0000 -1.0000
vn 1.0000 0.0000 0.0000
vn 0.0000 0.0000 1.0000
vn 0.0000 -1.0000 0.0000
vn 0.0000 0.3639 -0.9314
vn -0.9314 0.3639 0.0000
vn 0.0000 0.3639 0.9314
vn 0.9314 0.3639 0.0000
usemtl None
s off
f 1/1/1 2/2/1 18/3/1 9/4/1 14/5/1 4/6/1 3/7/1
f 3/7/2 4/6/2 19/8/2 10/9/2 15/10/2 8/11/2 7/12/2
f 7/12/3 8/11/3 20/13/3 11/14/3 16/15/3 6/16/3 5/17/3
f 5/17/4 6/16/4 21/18/4 12/19/4 17/20/4 2/21/4 1/22/4
f 3/23/5 7/12/5 5/17/5 1/24/5
f 28/25/6 22/26/6 31/27/6
f 27/28/6 23/29/6 32/30/6
f 26/31/6 14/32/6 33/33/6
f 23/29/6 26/31/6 34/34/6
f 10/35/6 19/36/6 35/37/6
f 19/36/6 4/38/6 36/39/6
f 20/13/6 27/28/6 37/40/6
f 8/11/6 15/41/6 38/42/6
f 15/41/6 10/35/6 39/43/6
f 16/15/6 28/25/6 40/44/6
f 11/14/6 24/45/6 41/46/6
f 24/45/6 13/47/6 42/48/6
f 22/26/6 29/49/6 43/50/6
f 13/47/6 25/51/6 44/52/6
f 25/51/6 9/53/6 45/54/6
f 29/49/6 18/55/6 30/56/6
f 18/55/7 2/57/7 30/56/7
f 2/57/8 17/58/8 30/56/8
f 17/58/9 29/49/9 30/56/9
f 22/26/7 12/59/7 31/27/7
f 12/59/8 21/60/8 31/27/8
f 21/60/9 28/25/9 31/27/9
f 23/29/7 13/47/7 32/30/7
f 13/47/8 24/45/8 32/30/8
f 24/45/9 27/28/9 32/30/9
f 14/32/7 9/53/7 33/33/7
f 9/53/8 25/51/8 33/33/8
f 25/51/9 26/31/9 33/33/9
f 26/31/7 25/51/7 34/34/7
f 25/51/8 13/47/8 34/34/8
f 13/47/9 23/29/9 34/34/9
f 19/36/7 26/31/7 35/37/7
f 26/31/8 23/29/8 35/37/8
f 23/29/9 10/35/9 35/37/9
f 4/38/7 14/32/7 36/39/7
f 14/32/8 26/31/8 36/39/8
f 26/31/9 19/36/9 36/39/9
f 27/28/7 24/45/7 37/40/7
f 24/45/8 11/14/8 37/40/8
f 11/14/9 20/13/9 37/40/9
f 15/41/7 27/28/7 38/42/7
f 27/28/8 20/13/8 38/42/8
f 20/13/9 8/11/9 38/42/9
f 10/35/7 23/29/7 39/43/7
f 23/29/8 27/28/8 39/43/8
f 27/28/9 15/41/9 39/43/9
f 28/25/7 21/60/7 40/44/7
f 21/60/8 6/16/8 40/44/8
f 6/16/9 16/15/9 40/44/9
f 24/45/7 28/25/7 41/46/7
f 28/25/8 16/15/8 41/46/8
f 16/15/9 11/14/9 41/46/9
f 13/47/7 22/26/7 42/48/7
f 22/26/8 28/25/8 42/48/8
f 28/25/9 24/45/9 42/48/9
f 29/49/7 17/58/7 43/50/7
f 17/58/8 12/59/8 43/50/8
f 12/59/9 22/26/9 43/50/9
f 25/51/7 29/49/7 44/52/7
f 29/49/8 22/26/8 44/52/8
f 22/26/9 13/47/9 44/52/9
f 9/53/7 18/55/7 45/54/7
f 18/55/8 29/49/8 45/54/8
f 29/49/9 25/51/9 45/54/9
